HIERARCHY
ROOT Hips
{
	OFFSET 0.000000 100.481300 0.000000
	CHANNELS 6 Xposition Yposition Zposition Xrotation Yrotation Zrotation
	JOINT Spine
	{
		OFFSET -0.279200 12.230698 -2.892100
		CHANNELS 3 Xrotation Yrotation Zrotation
		JOINT Spine1
		{
			OFFSET -0.325700 14.269203 -3.374200
			CHANNELS 3 Xrotation Yrotation Zrotation
			JOINT Spine2
			{
				OFFSET -0.372300 16.307602 -0.352600
				CHANNELS 3 Xrotation Yrotation Zrotation
				JOINT Neck
				{
					OFFSET -0.418800 17.814194 8.416900
					CHANNELS 3 Xrotation Yrotation Zrotation
					JOINT Head
					{
						OFFSET 0.000000 7.031097 3.806800
						CHANNELS 3 Xrotation Yrotation Zrotation
						JOINT HeadTop_End
						{
							OFFSET 0.000000 24.646606 12.978600
							CHANNELS 3 Xrotation Yrotation Zrotation
							End Site
							{
								OFFSET 0.000000 27.854965 0.000000
							}
						}
					}
				}
				JOINT LeftShoulder
				{
					OFFSET 16.952999 14.495407 -7.737500
					CHANNELS 3 Xrotation Yrotation Zrotation
					JOINT LeftArm
					{
						OFFSET 9.308998 -2.777710 0.208600
						CHANNELS 3 Xrotation Yrotation Zrotation
						JOINT LeftForeArm
						{
							OFFSET 29.972298 0.000000 0.000000
							CHANNELS 3 Xrotation Yrotation Zrotation
							JOINT LeftHand
							{
								OFFSET 26.026505 0.000000 0.000000
								CHANNELS 3 Xrotation Yrotation Zrotation
								JOINT LeftHandThumb1
								{
									OFFSET 12.240501 -7.147949 9.207150
									CHANNELS 3 Xrotation Yrotation Zrotation
									JOINT LeftHandThumb2
									{
										OFFSET 4.138618 -2.389435 2.389433
										CHANNELS 3 Xrotation Yrotation Zrotation
										JOINT LeftHandThumb3
										{
											OFFSET 2.726913 -1.574387 1.574386
											CHANNELS 3 Xrotation Yrotation Zrotation
											JOINT LeftHandThumb4
											{
												OFFSET 3.941010 -2.275345 2.275342
												CHANNELS 3 Xrotation Yrotation Zrotation
												End Site
												{
													OFFSET -0.005798 5.087799 0.009903
												}
											}
										}
									}
								}
								JOINT LeftHandIndex1
								{
									OFFSET 24.424698 -1.985611 5.953459
									CHANNELS 3 Xrotation Yrotation Zrotation
									JOINT LeftHandIndex2
									{
										OFFSET 6.426697 0.000000 0.000000
										CHANNELS 3 Xrotation Yrotation Zrotation
										JOINT LeftHandIndex3
										{
											OFFSET 5.337898 0.000000 0.000000
											CHANNELS 3 Xrotation Yrotation Zrotation
											JOINT LeftHandIndex4
											{
												OFFSET 4.409401 0.000000 0.000000
												CHANNELS 3 Xrotation Yrotation Zrotation
												End Site
												{
													OFFSET 0.000000 4.409363 0.014373
												}
											}
										}
									}
								}
								JOINT LeftHandMiddle1
								{
									OFFSET 23.810104 0.000000 0.000000
									CHANNELS 3 Xrotation Yrotation Zrotation
									JOINT LeftHandMiddle2
									{
										OFFSET 7.176498 0.000000 0.000000
										CHANNELS 3 Xrotation Yrotation Zrotation
										JOINT LeftHandMiddle3
										{
											OFFSET 6.774902 0.000000 0.000000
											CHANNELS 3 Xrotation Yrotation Zrotation
											JOINT LeftHandMiddle4
											{
												OFFSET 5.403328 0.000000 0.000000
												CHANNELS 3 Xrotation Yrotation Zrotation
												End Site
												{
													OFFSET -0.027702 5.403244 0.017414
												}
											}
										}
									}
								}
								JOINT LeftHandRing1
								{
									OFFSET 22.908401 -0.839279 -6.020567
									CHANNELS 3 Xrotation Yrotation Zrotation
									JOINT LeftHandRing2
									{
										OFFSET 6.337502 0.000000 0.000000
										CHANNELS 3 Xrotation Yrotation Zrotation
										JOINT LeftHandRing3
										{
											OFFSET 5.779297 0.000000 0.000000
											CHANNELS 3 Xrotation Yrotation Zrotation
											JOINT LeftHandRing4
											{
												OFFSET 4.965698 0.000000 0.000000
												CHANNELS 3 Xrotation Yrotation Zrotation
												End Site
												{
													OFFSET 0.000000 4.965668 0.016186
												}
											}
										}
									}
								}
								JOINT LeftHandPinky1
								{
									OFFSET 20.037003 -1.530319 -10.950146
									CHANNELS 3 Xrotation Yrotation Zrotation
									JOINT LeftHandPinky2
									{
										OFFSET 5.254700 0.000000 0.000000
										CHANNELS 3 Xrotation Yrotation Zrotation
										JOINT LeftHandPinky3
										{
											OFFSET 4.810204 0.000000 0.000000
											CHANNELS 3 Xrotation Yrotation Zrotation
											JOINT LeftHandPinky4
											{
												OFFSET 3.647202 0.000000 0.000000
												CHANNELS 3 Xrotation Yrotation Zrotation
												End Site
												{
													OFFSET 0.000000 3.647186 0.011889
												}
											}
										}
									}
								}
							}
						}
					}
				}
				JOINT RightShoulder
				{
					OFFSET -15.141001 14.495407 -7.737500
					CHANNELS 3 Xrotation Yrotation Zrotation
					JOINT RightArm
					{
						OFFSET -9.308998 -2.777710 0.208500
						CHANNELS 3 Xrotation Yrotation Zrotation
						JOINT RightForeArm
						{
							OFFSET -29.972300 0.000000 0.000000
							CHANNELS 3 Xrotation Yrotation Zrotation
							JOINT RightHand
							{
								OFFSET -26.026505 0.000000 0.000000
								CHANNELS 3 Xrotation Yrotation Zrotation
								JOINT RightHandThumb1
								{
									OFFSET -12.240601 -7.148026 9.207092
									CHANNELS 3 Xrotation Yrotation Zrotation
									JOINT RightHandThumb2
									{
										OFFSET -4.138618 -2.389435 2.389433
										CHANNELS 3 Xrotation Yrotation Zrotation
										JOINT RightHandThumb3
										{
											OFFSET -2.726974 -1.574417 1.574421
											CHANNELS 3 Xrotation Yrotation Zrotation
											JOINT RightHandThumb4
											{
												OFFSET -3.941010 -2.275345 2.275343
												CHANNELS 3 Xrotation Yrotation Zrotation
												End Site
												{
													OFFSET 0.005814 5.087799 0.009927
												}
											}
										}
									}
								}
								JOINT RightHandIndex1
								{
									OFFSET -24.424698 -1.985657 5.953444
									CHANNELS 3 Xrotation Yrotation Zrotation
									JOINT RightHandIndex2
									{
										OFFSET -6.426697 0.000000 0.000000
										CHANNELS 3 Xrotation Yrotation Zrotation
										JOINT RightHandIndex3
										{
											OFFSET -5.337898 0.000000 0.000000
											CHANNELS 3 Xrotation Yrotation Zrotation
											JOINT RightHandIndex4
											{
												OFFSET -4.409401 0.000000 0.000000
												CHANNELS 3 Xrotation Yrotation Zrotation
												End Site
												{
													OFFSET 0.000000 4.409363 0.014408
												}
											}
										}
									}
								}
								JOINT RightHandMiddle1
								{
									OFFSET -23.810097 0.000000 0.000000
									CHANNELS 3 Xrotation Yrotation Zrotation
									JOINT RightHandMiddle2
									{
										OFFSET -7.176498 0.000000 0.000000
										CHANNELS 3 Xrotation Yrotation Zrotation
										JOINT RightHandMiddle3
										{
											OFFSET -6.774902 0.000000 0.000000
											CHANNELS 3 Xrotation Yrotation Zrotation
											JOINT RightHandMiddle4
											{
												OFFSET -5.403328 0.000000 0.000000
												CHANNELS 3 Xrotation Yrotation Zrotation
												End Site
												{
													OFFSET 0.027702 5.403244 0.017457
												}
											}
										}
									}
								}
								JOINT RightHandRing1
								{
									OFFSET -22.908302 -0.839325 -6.020576
									CHANNELS 3 Xrotation Yrotation Zrotation
									JOINT RightHandRing2
									{
										OFFSET -6.337502 0.000000 0.000000
										CHANNELS 3 Xrotation Yrotation Zrotation
										JOINT RightHandRing3
										{
											OFFSET -5.779297 0.000000 0.000000
											CHANNELS 3 Xrotation Yrotation Zrotation
											JOINT RightHandRing4
											{
												OFFSET -4.965698 0.000000 0.000000
												CHANNELS 3 Xrotation Yrotation Zrotation
												End Site
												{
													OFFSET 0.000000 4.965668 0.016226
												}
											}
										}
									}
								}
								JOINT RightHandPinky1
								{
									OFFSET -20.037003 -1.530334 -10.950259
									CHANNELS 3 Xrotation Yrotation Zrotation
									JOINT RightHandPinky2
									{
										OFFSET -5.254700 0.000000 0.000000
										CHANNELS 3 Xrotation Yrotation Zrotation
										JOINT RightHandPinky3
										{
											OFFSET -4.810204 0.000000 0.000000
											CHANNELS 3 Xrotation Yrotation Zrotation
											JOINT RightHandPinky4
											{
												OFFSET -3.647202 0.000000 0.000000
												CHANNELS 3 Xrotation Yrotation Zrotation
												End Site
												{
													OFFSET 0.000000 3.647186 0.011917
												}
											}
										}
									}
								}
							}
						}
					}
				}
			}
		}
	}
	JOINT LeftUpLeg
	{
		OFFSET 15.427100 -6.655098 0.678600
		CHANNELS 3 Xrotation Yrotation Zrotation
		JOINT LeftLeg
		{
			OFFSET 4.081073 -39.591068 13.024000
			CHANNELS 3 Xrotation Yrotation Zrotation
			JOINT LeftFoot
			{
				OFFSET -4.081074 -37.707932 -15.979700
				CHANNELS 3 Xrotation Yrotation Zrotation
				JOINT LeftToeBase
				{
					OFFSET 5.346399 -15.068900 20.645000
					CHANNELS 3 Xrotation Yrotation Zrotation
					JOINT LeftToe_End
					{
						OFFSET 2.754700 0.931300 11.300900
						CHANNELS 3 Xrotation Yrotation Zrotation
						End Site
						{
							OFFSET 0.000000 11.669021 0.000000
						}
					}
				}
			}
		}
	}
	JOINT RightUpLeg
	{
		OFFSET -15.569500 -6.655098 0.678600
		CHANNELS 3 Xrotation Yrotation Zrotation
		JOINT RightLeg
		{
			OFFSET -4.081825 -39.591045 13.023800
			CHANNELS 3 Xrotation Yrotation Zrotation
			JOINT RightFoot
			{
				OFFSET 4.081824 -37.707954 -15.979600
				CHANNELS 3 Xrotation Yrotation Zrotation
				JOINT RightToeBase
				{
					OFFSET -5.346400 -15.068900 20.645000
					CHANNELS 3 Xrotation Yrotation Zrotation
					JOINT RightToe_End
					{
						OFFSET -2.754700 0.931300 11.300900
						CHANNELS 3 Xrotation Yrotation Zrotation
						End Site
						{
							OFFSET 0.000000 11.669021 0.000000
						}
					}
				}
			}
		}
	}
}
MOTION
Frames: 4
Frame Time: 0.033333
0.801019 91.295753 -1.384897 -4.069398 -41.414565 0.605407 2.924561 -0.114953 -0.577592 5.848339 -0.390394 -0.876002 5.848341 -0.390384 -0.876005 -0.883995 26.118208 -5.085117 -12.133239 13.409289 0.401835 -0.000000 0.000000 -0.000000 -18.935195 7.366260 -4.623252 -4.189751 -19.755627 -74.317328 -22.453157 -68.272556 -27.042476 -100.597949 -26.404475 17.629849 3.592085 4.185695 -5.133830 1.252884 4.302570 1.889375 0.000003 0.000003 -0.000008 0.000001 0.000002 -0.000002 7.554889 5.560409 -33.410386 -14.917826 -6.767415 -80.641913 0.000002 0.000000 -0.000000 0.000000 -0.000001 -0.000001 -0.349212 -1.566787 -62.979235 -6.177637 -6.585468 -60.286180 0.000000 0.000005 0.000009 0.000001 -0.000001 -0.000000 -5.286439 4.624262 -73.484708 0.757949 -3.521237 -58.282844 -0.000006 -0.000006 0.000000 0.000001 -0.000001 -0.000001 -16.248807 1.424886 -86.150597 2.608792 -7.577998 -55.784727 -0.000001 -0.000000 0.000000 -0.000001 -0.000001 -0.000002 14.829377 0.115995 -0.444132 3.392379 38.346752 41.241638 -3.479719 115.438052 -0.033013 -33.753050 -20.046663 5.024216 15.407455 -4.518705 17.011011 11.550403 4.015412 -20.411419 -0.000002 0.000004 0.000001 -0.000003 0.000000 -0.000001 1.857038 -0.976114 4.781780 -1.775907 -0.095303 22.317064 0.000002 0.000001 -0.000009 -0.000001 0.000002 -0.000003 3.631157 5.779707 48.858816 -9.397598 -0.919677 110.759775 0.000012 0.000000 -0.000001 -0.000001 0.000000 0.000001 -8.676862 -5.659698 54.892304 -4.714171 8.864025 96.803759 -0.000002 -0.000003 0.000000 -0.000000 0.000001 -0.000001 -12.562954 0.077594 69.885300 -3.484592 14.093097 79.770551 0.000003 0.000000 -0.000000 0.000001 -0.000003 0.000002 -21.377684 39.765515 19.536470 24.364261 5.610445 -0.971414 -2.800037 1.791933 -4.896215 0.002985 -0.026201 0.062612 0.000000 0.000000 0.000000 0.137732 4.515923 -13.715498 24.189970 1.336577 1.211909 -17.994437 -18.972365 9.551371 -0.020501 -0.187018 0.446698 -0.000000 0.000001 0.000000 
0.769864 91.154343 -1.613227 -3.988261 -41.423127 0.918351 2.900413 -0.125391 -0.751605 5.799874 -0.427747 -1.103215 5.799875 -0.427737 -1.103215 -0.730181 26.054185 -5.103172 -12.030203 13.365295 0.393616 -0.000000 0.000000 0.000000 -18.884802 7.387714 -4.659338 -6.300738 -20.648341 -76.186928 -18.817159 -64.769413 -22.800794 -101.147950 -24.702977 16.256965 3.545164 3.975054 -5.053045 1.252885 4.302578 1.889379 0.000005 0.000005 -0.000006 -0.000001 0.000003 -0.000000 7.554891 5.560407 -33.410386 -14.917825 -6.767422 -80.641913 -0.000002 0.000000 -0.000000 0.000002 -0.000002 -0.000001 -0.349211 -1.566785 -62.979241 -6.177641 -6.585478 -60.286187 0.000001 0.000004 0.000008 -0.000001 0.000000 0.000000 -5.286456 4.624257 -73.484721 0.757944 -3.521228 -58.282844 -0.000004 -0.000008 -0.000001 0.000002 0.000000 0.000001 -16.248795 1.424889 -86.150583 2.608788 -7.578006 -55.784720 -0.000002 0.000000 -0.000002 0.000000 -0.000002 0.000001 14.819590 0.099343 -0.428804 3.354015 37.874540 41.434632 -3.001757 115.274223 -0.635453 -33.651051 -20.923695 4.210783 15.407476 -4.518699 17.010998 11.550393 4.015414 -20.411418 0.000001 0.000006 0.000004 0.000000 0.000000 -0.000001 1.857072 -0.976112 4.781786 -1.775904 -0.095288 22.317044 0.000005 -0.000002 -0.000008 0.000001 0.000000 -0.000002 3.631177 5.779709 48.858805 -9.397602 -0.919659 110.759741 0.000012 -0.000001 -0.000001 -0.000000 -0.000003 0.000000 -8.676837 -5.659701 54.892297 -4.714169 8.864038 96.803766 0.000001 -0.000001 -0.000002 -0.000000 -0.000003 -0.000001 -12.562944 0.077598 69.885280 -3.484597 14.093097 79.770544 -0.000000 0.000002 -0.000002 -0.000002 -0.000000 0.000002 -21.673251 39.989378 19.493889 24.565790 5.580738 -0.976274 -2.791116 1.705815 -4.434335 0.171334 -0.026076 0.062221 -0.000000 0.000000 -0.000000 -0.580728 3.721988 -14.037429 24.902170 1.295567 1.227840 -18.194121 -18.109640 9.556689 -0.020495 -0.187033 0.446700 0.000000 0.000001 0.000000 
0.852329 90.891754 -1.943985 -3.923992 -41.734252 1.414138 2.915995 -0.112190 -0.983055 5.831116 -0.421139 -1.350007 5.831111 -0.421133 -1.350009 -0.790453 25.876491 -4.709027 -12.140337 13.565405 0.016894 -0.000000 0.000000 -0.000000 -18.769344 7.482150 -4.609475 -8.264714 -20.308029 -78.257569 -15.036195 -62.176517 -18.682823 -99.848008 -22.757420 14.954807 3.854132 5.195473 -5.233479 1.252881 4.302600 1.889369 0.000006 0.000004 -0.000008 0.000002 0.000002 0.000000 7.554882 5.560375 -33.410379 -14.917825 -6.767402 -80.641919 -0.000000 -0.000000 0.000000 0.000002 0.000000 -0.000000 -0.349213 -1.566808 -62.979235 -6.177655 -6.585490 -60.286207 -0.000002 0.000005 0.000008 0.000002 -0.000001 0.000000 -5.286455 4.624243 -73.484708 0.757942 -3.521247 -58.282851 -0.000005 -0.000006 0.000001 -0.000001 -0.000000 -0.000000 -16.248800 1.424870 -86.150583 2.608791 -7.578003 -55.784737 -0.000002 -0.000003 0.000005 -0.000000 0.000000 0.000001 14.801338 -0.053748 -0.424050 3.506201 37.265464 42.757305 -2.125449 113.635879 -1.103173 -32.254783 -18.322730 4.955864 15.407483 -4.518702 17.010991 11.550396 4.015426 -20.411404 -0.000001 0.000006 0.000004 -0.000000 0.000000 0.000001 1.857071 -0.976113 4.781773 -1.775922 -0.095304 22.317059 0.000000 0.000000 -0.000009 -0.000000 0.000001 -0.000001 3.631168 5.779693 48.858826 -9.397612 -0.919659 110.759761 0.000012 -0.000001 -0.000001 -0.000000 0.000000 -0.000001 -8.676858 -5.659704 54.892297 -4.714160 8.864017 96.803766 0.000001 -0.000000 -0.000001 0.000001 0.000001 -0.000001 -12.562946 0.077577 69.885300 -3.484581 14.093112 79.770551 0.000002 -0.000000 -0.000003 0.000001 0.000000 -0.000001 -22.110268 40.812078 19.637713 24.770171 5.533175 -0.990292 -2.647704 1.120438 -4.426745 0.120397 -0.026114 0.062338 0.000000 -0.000000 -0.000000 -1.750779 3.047455 -14.736447 26.088932 1.309497 1.266631 -18.484886 -16.582439 9.664970 -0.020501 -0.187026 0.446698 0.000000 -0.000001 0.000000 
0.998775 90.490913 -2.298488 -4.402169 -42.218164 1.557958 3.014554 -0.142210 -1.106581 6.028791 -0.498424 -1.374681 6.028792 -0.498425 -1.374683 -1.638687 25.597005 -3.509145 -12.859088 14.380576 -0.857461 0.000000 0.000000 0.000000 -18.631240 7.710060 -4.293742 -8.316354 -18.638673 -78.917187 -13.421132 -62.274680 -17.281304 -98.360933 -22.311320 13.810910 4.839294 8.891221 -5.804831 1.252886 4.302585 1.889376 0.000004 0.000003 -0.000006 0.000002 -0.000002 -0.000000 7.554896 5.560405 -33.410379 -14.917814 -6.767417 -80.641892 -0.000001 0.000000 -0.000000 0.000003 -0.000000 0.000001 -0.349213 -1.566807 -62.979241 -6.177633 -6.585473 -60.286193 0.000001 0.000003 0.000007 -0.000002 -0.000001 -0.000000 -5.286449 4.624246 -73.484714 0.757935 -3.521251 -58.282831 -0.000009 -0.000006 0.000001 0.000002 0.000000 0.000002 -16.248805 1.424891 -86.150610 2.608793 -7.577992 -55.784720 -0.000003 0.000001 0.000002 -0.000000 0.000000 -0.000002 14.756905 -0.375384 -0.524831 2.759842 37.761179 44.891743 -1.977632 110.947926 -0.829693 -30.226838 -14.855863 7.648049 15.407450 -4.518709 17.011006 11.550411 4.015426 -20.411414 -0.000001 0.000005 0.000004 0.000002 -0.000002 -0.000001 1.857055 -0.976095 4.781781 -1.775912 -0.095313 22.317066 0.000002 0.000002 -0.000009 0.000001 0.000002 -0.000004 3.631171 5.779713 48.858819 -9.397610 -0.919665 110.759782 0.000012 -0.000001 -0.000002 -0.000000 0.000001 0.000000 -8.676858 -5.659702 54.892308 -4.714180 8.864018 96.803766 0.000001 -0.000001 -0.000001 -0.000000 0.000002 0.000001 -12.562951 0.077613 69.885307 -3.484614 14.093106 79.770537 -0.000001 0.000001 -0.000001 0.000002 -0.000001 -0.000001 -22.518384 42.114229 20.304382 25.105260 5.467155 -1.021774 -2.438259 -0.214546 -5.024318 -0.204838 -0.026357 0.063091 0.000000 -0.000001 -0.000000 -2.395975 3.560177 -15.683725 27.465512 1.570261 1.347851 -18.851706 -14.983948 10.390716 -0.290903 -0.186244 0.445191 -0.000000 0.000001 -0.000000 
